<?xml version="1.0" encoding="UTF-8" standalone="no"?>
<svg width="600" height="400" viewBox="0 0 600 400" fill="none" xmlns="http://www.w3.org/2000/svg">
  <!-- Background -->
  <rect width="600" height="400" rx="20" fill="#f8f9fa"/>
  
  <!-- Decorative Elements -->
  <circle cx="100" cy="100" r="80" fill="#3498db" opacity="0.1"/>
  <circle cx="500" cy="300" r="80" fill="#3498db" opacity="0.1"/>
  <circle cx="300" cy="150" r="120" fill="#3498db" opacity="0.05"/>
  
  <!-- University Building -->
  <rect x="200" y="150" width="200" height="150" fill="#2c3e50"/>
  <rect x="220" y="170" width="30" height="50" fill="#3498db"/>
  <rect x="270" y="170" width="30" height="50" fill="#3498db"/>
  <rect x="320" y="170" width="30" height="50" fill="#3498db"/>
  <rect x="350" y="170" width="30" height="50" fill="#3498db"/>
  
  <!-- Roof -->
  <polygon points="200,150 300,100 400,150" fill="#34495e"/>
  
  <!-- Steps -->
  <rect x="250" y="300" width="100" height="10" fill="#34495e"/>
  <rect x="260" y="310" width="80" height="10" fill="#34495e"/>
  <rect x="270" y="320" width="60" height="10" fill="#34495e"/>
  
  <!-- People -->
  <circle cx="150" cy="280" r="15" fill="#3498db"/>
  <rect x="145" y="295" width="10" height="25" fill="#3498db"/>
  <rect x="135" y="310" width="30" height="5" fill="#3498db"/>
  
  <circle cx="450" cy="280" r="15" fill="#3498db"/>
  <rect x="445" y="295" width="10" height="25" fill="#3498db"/>
  <rect x="435" y="310" width="30" height="5" fill="#3498db"/>
  
  <!-- Clipboard with Star -->
  <rect x="100" y="200" width="60" height="80" rx="5" fill="white" stroke="#3498db" stroke-width="2"/>
  <rect x="100" y="200" width="60" height="15" rx="5" fill="#3498db"/>
  <path d="M115 230 L120 240 L135 225 L130 220 L120 230 L115 230" fill="#3498db"/>
  <line x1="110" y1="250" x2="150" y2="250" stroke="#3498db" stroke-width="2"/>
  <line x1="110" y1="260" x2="150" y2="260" stroke="#3498db" stroke-width="2"/>
  
  <!-- Chart -->
  <rect x="440" y="200" width="60" height="80" rx="5" fill="white" stroke="#3498db" stroke-width="2"/>
  <line x1="450" y1="220" x2="450" y2="270" stroke="#3498db" stroke-width="2"/>
  <line x1="450" y1="270" x2="490" y2="270" stroke="#3498db" stroke-width="2"/>
  <rect x="455" y="250" width="10" height="20" fill="#3498db"/>
  <rect x="470" y="230" width="10" height="40" fill="#3498db"/>
  <rect x="485" y="240" width="10" height="30" fill="#3498db"/>
</svg>
